<?xml version="1.0" encoding="UTF-8" standalone="no"?>
<svg
   id="Artwork_MW"
   data-name="Artwork MW"
   viewBox="0 0 504.57 362.83"
   version="1.1"
   sodipodi:docname="mw-full.svg"
   inkscape:version="1.2.2 (b0a8486541, 2022-12-01)"
   xmlns:inkscape="http://www.inkscape.org/namespaces/inkscape"
   xmlns:sodipodi="http://sodipodi.sourceforge.net/DTD/sodipodi-0.dtd"
   xmlns="http://www.w3.org/2000/svg"
   xmlns:svg="http://www.w3.org/2000/svg">
  <sodipodi:namedview
     id="namedview83"
     pagecolor="#ffffff"
     bordercolor="#000000"
     borderopacity="0.25"
     inkscape:showpageshadow="2"
     inkscape:pageopacity="0.0"
     inkscape:pagecheckerboard="0"
     inkscape:deskcolor="#d1d1d1"
     showgrid="false"
     inkscape:zoom="2.5962701"
     inkscape:cx="167.54806"
     inkscape:cy="181.60669"
     inkscape:window-width="2560"
     inkscape:window-height="1376"
     inkscape:window-x="1920"
     inkscape:window-y="27"
     inkscape:window-maximized="1"
     inkscape:current-layer="Artwork_MW" />
  <defs
     id="defs4">
    <style
       id="style2">
      .cls-1 {
        fill: #d01972;
      }

      .cls-1, .cls-2 {
        stroke-width: 0px;
      }

      .cls-2 {
        fill: #fff;
      }
    </style>
  </defs>
  <polygon
     class="cls-2"
     points="199.93,182.79 199.93,182.79 199.92,182.79 "
     id="polygon6"
     transform="matrix(1.4908536,0,0,1.4908536,-124.12215,-89.220003)" />
  <polygon
     class="cls-2"
     points="268.11,182.79 268.09,182.78 268.09,182.79 "
     id="polygon8"
     transform="matrix(1.4908536,0,0,1.4908536,-124.12215,-89.220003)" />
  <g
     id="g36"
     transform="matrix(1.4908536,0,0,1.4908536,-124.12215,-89.220003)">
    <path
       class="cls-2"
       d="m 188.3,279.24 h -0.62 c -0.07,0 -0.13,-0.02 -0.18,-0.06 -0.05,-0.04 -0.08,-0.09 -0.11,-0.15 l -1.3,-3.21 h -5.42 l -1.29,3.21 c -0.02,0.06 -0.06,0.11 -0.11,0.15 -0.05,0.04 -0.11,0.06 -0.19,0.06 h -0.61 l 4.51,-11.03 h 0.8 z m -7.39,-4.01 h 4.94 l -2.25,-5.58 c -0.04,-0.09 -0.07,-0.19 -0.11,-0.3 -0.04,-0.11 -0.07,-0.23 -0.11,-0.36 -0.04,0.12 -0.07,0.24 -0.11,0.36 -0.04,0.11 -0.07,0.21 -0.11,0.31 z"
       id="path10" />
    <path
       class="cls-2"
       d="m 199.81,276.49 c 0.03,-0.08 0.06,-0.16 0.1,-0.25 0.03,-0.08 0.07,-0.16 0.11,-0.23 l 4.34,-7.67 c 0.04,-0.07 0.08,-0.11 0.12,-0.12 0.04,-0.02 0.1,-0.02 0.17,-0.02 h 0.55 v 11.03 h -0.7 v -9.41 c 0,-0.14 0,-0.28 0.02,-0.43 l -4.34,7.71 c -0.07,0.14 -0.18,0.2 -0.31,0.2 h -0.12 c -0.13,0 -0.23,-0.07 -0.31,-0.2 l -4.46,-7.72 c 0.02,0.15 0.02,0.3 0.02,0.44 v 9.41 h -0.69 V 268.2 h 0.55 c 0.07,0 0.13,0 0.18,0.02 0.05,0.02 0.09,0.06 0.13,0.12 l 4.45,7.67 c 0.08,0.15 0.15,0.3 0.2,0.47 z"
       id="path12" />
    <path
       class="cls-2"
       d="m 210.2,279.24 h -0.8 v -11.03 h 0.8 z"
       id="path14" />
    <path
       class="cls-2"
       d="m 214.95,268.23 c 0,0 0.09,0.06 0.13,0.12 l 7.14,9.56 c -0.02,-0.16 -0.02,-0.31 -0.02,-0.45 v -9.26 h 0.7 v 11.03 h -0.38 c -0.12,0 -0.22,-0.05 -0.29,-0.16 l -7.17,-9.58 c 0.02,0.16 0.02,0.3 0.02,0.44 v 9.29 h -0.69 v -11.03 h 0.39 c 0.07,0 0.13,0 0.17,0.03 z"
       id="path16" />
    <path
       class="cls-2"
       d="m 227.9,279.24 h -0.8 v -11.03 h 0.8 z"
       id="path18" />
    <path
       class="cls-2"
       d="m 237.44,269.54 c -0.05,0.09 -0.11,0.13 -0.2,0.13 -0.07,0 -0.16,-0.05 -0.26,-0.14 -0.1,-0.09 -0.25,-0.2 -0.43,-0.32 -0.18,-0.12 -0.41,-0.22 -0.68,-0.32 -0.27,-0.1 -0.61,-0.15 -1.01,-0.15 -0.4,0 -0.75,0.06 -1.06,0.17 -0.31,0.11 -0.56,0.27 -0.77,0.47 -0.21,0.2 -0.36,0.43 -0.47,0.69 -0.11,0.26 -0.16,0.53 -0.16,0.82 0,0.38 0.08,0.68 0.24,0.93 0.16,0.24 0.37,0.45 0.63,0.62 0.26,0.17 0.56,0.32 0.89,0.43 0.33,0.12 0.67,0.23 1.02,0.35 0.35,0.12 0.69,0.24 1.02,0.38 0.33,0.14 0.63,0.31 0.89,0.52 0.26,0.21 0.47,0.46 0.63,0.77 0.16,0.3 0.24,0.68 0.24,1.13 0,0.45 -0.08,0.9 -0.24,1.31 -0.16,0.41 -0.39,0.76 -0.69,1.06 -0.3,0.3 -0.67,0.54 -1.11,0.71 -0.44,0.17 -0.94,0.26 -1.5,0.26 -0.73,0 -1.35,-0.13 -1.88,-0.39 -0.52,-0.26 -0.99,-0.61 -1.38,-1.06 l 0.22,-0.34 c 0.06,-0.08 0.14,-0.12 0.22,-0.12 0.05,0 0.11,0.03 0.18,0.09 0.07,0.06 0.16,0.14 0.27,0.23 0.1,0.09 0.23,0.19 0.38,0.3 0.15,0.11 0.31,0.21 0.51,0.3 0.19,0.09 0.41,0.17 0.66,0.23 0.25,0.06 0.53,0.09 0.85,0.09 0.44,0 0.83,-0.07 1.17,-0.2 0.34,-0.13 0.63,-0.31 0.87,-0.54 0.24,-0.23 0.42,-0.5 0.54,-0.82 0.12,-0.31 0.19,-0.65 0.19,-1.01 0,-0.39 -0.08,-0.71 -0.24,-0.96 -0.16,-0.25 -0.37,-0.46 -0.63,-0.63 -0.26,-0.17 -0.56,-0.31 -0.89,-0.42 -0.33,-0.11 -0.67,-0.23 -1.02,-0.34 -0.35,-0.11 -0.69,-0.23 -1.02,-0.37 -0.33,-0.14 -0.63,-0.31 -0.89,-0.52 -0.26,-0.21 -0.47,-0.47 -0.63,-0.79 -0.16,-0.31 -0.24,-0.71 -0.24,-1.18 0,-0.37 0.07,-0.73 0.21,-1.07 0.14,-0.34 0.35,-0.65 0.62,-0.91 0.27,-0.26 0.61,-0.47 1,-0.63 0.4,-0.16 0.85,-0.24 1.36,-0.24 0.57,0 1.09,0.09 1.54,0.27 0.45,0.18 0.87,0.46 1.25,0.83 l -0.19,0.36 z"
       id="path20" />
    <path
       class="cls-2"
       d="m 248.07,268.2 v 0.68 h -3.88 v 10.36 h -0.8 v -10.36 h -3.9 v -0.68 h 8.57 z"
       id="path22" />
    <path
       class="cls-2"
       d="m 251.64,274.24 v 4.99 h -0.8 V 268.2 h 2.82 c 1.27,0 2.23,0.25 2.85,0.74 0.63,0.49 0.94,1.21 0.94,2.16 0,0.42 -0.07,0.81 -0.22,1.15 -0.15,0.34 -0.35,0.65 -0.63,0.92 -0.27,0.26 -0.6,0.48 -0.99,0.65 -0.39,0.17 -0.82,0.28 -1.3,0.33 0.13,0.08 0.24,0.18 0.34,0.31 l 3.8,4.77 h -0.69 c -0.08,0 -0.15,-0.02 -0.21,-0.05 -0.06,-0.03 -0.12,-0.08 -0.18,-0.16 l -3.53,-4.48 c -0.09,-0.11 -0.18,-0.2 -0.28,-0.24 -0.1,-0.04 -0.26,-0.07 -0.47,-0.07 h -1.44 z m 0,-0.59 h 1.92 c 0.49,0 0.93,-0.06 1.31,-0.18 0.39,-0.12 0.71,-0.28 0.98,-0.5 0.27,-0.22 0.47,-0.48 0.61,-0.79 0.14,-0.31 0.21,-0.65 0.21,-1.04 0,-0.79 -0.26,-1.37 -0.77,-1.75 -0.51,-0.38 -1.26,-0.57 -2.25,-0.57 h -2.02 v 4.82 z"
       id="path24" />
    <path
       class="cls-2"
       d="m 264.51,274.68 v 4.55 h -0.8 v -4.55 l -4.08,-6.48 h 0.69 c 0.07,0 0.13,0.02 0.18,0.05 0.04,0.03 0.09,0.08 0.13,0.14 l 3.16,5.07 c 0.07,0.12 0.14,0.24 0.19,0.35 0.05,0.11 0.1,0.23 0.14,0.34 0.04,-0.11 0.09,-0.23 0.14,-0.34 0.05,-0.11 0.11,-0.23 0.19,-0.35 l 3.15,-5.07 c 0.03,-0.06 0.07,-0.1 0.12,-0.14 0.05,-0.04 0.11,-0.06 0.18,-0.06 h 0.7 l -4.08,6.48 z"
       id="path26" />
    <path
       class="cls-2"
       d="m 284.52,273.71 c 0,0.85 -0.13,1.63 -0.38,2.32 -0.26,0.69 -0.61,1.29 -1.08,1.78 -0.47,0.49 -1.02,0.87 -1.66,1.14 -0.65,0.27 -1.36,0.4 -2.14,0.4 -0.78,0 -1.49,-0.13 -2.13,-0.4 -0.64,-0.27 -1.2,-0.65 -1.66,-1.14 -0.46,-0.49 -0.82,-1.08 -1.08,-1.78 -0.26,-0.7 -0.39,-1.47 -0.39,-2.32 0,-0.85 0.13,-1.62 0.39,-2.31 0.26,-0.69 0.62,-1.29 1.08,-1.78 0.46,-0.49 1.02,-0.87 1.66,-1.14 0.64,-0.27 1.35,-0.41 2.13,-0.41 0.78,0 1.5,0.13 2.14,0.4 0.64,0.27 1.2,0.65 1.66,1.14 0.46,0.49 0.82,1.09 1.08,1.78 0.25,0.69 0.38,1.47 0.38,2.31 z m -0.83,0 c 0,-0.77 -0.11,-1.46 -0.32,-2.07 -0.21,-0.61 -0.51,-1.13 -0.9,-1.56 -0.39,-0.43 -0.85,-0.75 -1.4,-0.98 -0.55,-0.23 -1.15,-0.34 -1.82,-0.34 -0.67,0 -1.25,0.11 -1.8,0.34 -0.54,0.23 -1.01,0.55 -1.4,0.98 -0.39,0.43 -0.7,0.95 -0.91,1.56 -0.22,0.61 -0.32,1.31 -0.32,2.07 0,0.76 0.11,1.47 0.32,2.08 0.22,0.61 0.52,1.13 0.91,1.56 0.39,0.43 0.86,0.75 1.4,0.97 0.54,0.22 1.14,0.34 1.8,0.34 0.66,0 1.27,-0.11 1.82,-0.34 0.55,-0.22 1.01,-0.55 1.4,-0.97 0.39,-0.43 0.69,-0.95 0.9,-1.56 0.21,-0.61 0.32,-1.3 0.32,-2.08 z"
       id="path28" />
    <path
       class="cls-2"
       d="m 294.35,268.2 v 0.66 h -5.81 v 4.64 h 5.03 v 0.66 h -5.03 v 5.07 h -0.8 V 268.2 Z"
       id="path30" />
    <path
       class="cls-2"
       d="m 311.43,273.55 c 0,0.82 -0.14,1.59 -0.42,2.29 -0.28,0.71 -0.68,1.32 -1.2,1.84 -0.51,0.52 -1.13,0.93 -1.86,1.23 -0.72,0.3 -1.53,0.44 -2.41,0.44 -0.88,0 -1.69,-0.15 -2.42,-0.44 -0.73,-0.3 -1.35,-0.71 -1.87,-1.23 -0.52,-0.52 -0.92,-1.14 -1.2,-1.84 -0.28,-0.71 -0.43,-1.47 -0.43,-2.29 0,-0.82 0.14,-1.59 0.43,-2.29 0.28,-0.71 0.68,-1.32 1.2,-1.84 0.52,-0.52 1.14,-0.93 1.87,-1.22 0.73,-0.3 1.53,-0.44 2.42,-0.44 0.89,0 1.69,0.15 2.41,0.45 0.73,0.3 1.35,0.71 1.86,1.23 0.51,0.52 0.91,1.13 1.2,1.84 0.28,0.71 0.42,1.47 0.42,2.28 z m -2.7,0 c 0,-0.56 -0.07,-1.07 -0.22,-1.52 -0.15,-0.45 -0.35,-0.83 -0.63,-1.14 -0.27,-0.31 -0.61,-0.55 -1,-0.72 -0.39,-0.17 -0.84,-0.25 -1.35,-0.25 -0.51,0 -0.96,0.08 -1.36,0.25 -0.4,0.17 -0.73,0.41 -1.01,0.72 -0.27,0.31 -0.48,0.69 -0.63,1.14 -0.15,0.45 -0.22,0.95 -0.22,1.52 0,0.57 0.07,1.07 0.22,1.52 0.15,0.45 0.36,0.83 0.63,1.14 0.27,0.31 0.61,0.55 1.01,0.71 0.4,0.16 0.85,0.25 1.36,0.25 0.51,0 0.95,-0.08 1.35,-0.25 0.4,-0.17 0.73,-0.4 1,-0.71 0.27,-0.31 0.48,-0.69 0.63,-1.14 0.15,-0.45 0.22,-0.96 0.22,-1.52 z"
       id="path32" />
    <path
       class="cls-2"
       d="m 319.43,274.66 c 0.1,0.21 0.19,0.43 0.28,0.65 0.09,-0.23 0.18,-0.45 0.28,-0.67 0.1,-0.22 0.2,-0.43 0.3,-0.63 l 2.92,-5.75 c 0.05,-0.1 0.11,-0.18 0.16,-0.23 0.05,-0.05 0.12,-0.1 0.18,-0.12 0.07,-0.03 0.14,-0.04 0.23,-0.04 h 2.31 v 11.35 h -2.32 v -6.53 c 0,-0.32 0.02,-0.66 0.05,-1.03 l -3.01,5.84 c -0.09,0.18 -0.22,0.32 -0.38,0.41 -0.16,0.09 -0.34,0.14 -0.54,0.14 h -0.36 c -0.2,0 -0.38,-0.05 -0.54,-0.14 -0.16,-0.09 -0.28,-0.23 -0.38,-0.41 l -3.03,-5.85 c 0.02,0.18 0.04,0.36 0.05,0.54 0.01,0.18 0.02,0.34 0.02,0.5 v 6.53 h -2.32 v -11.35 h 2.31 c 0.09,0 0.16,0.01 0.23,0.04 0.07,0.03 0.13,0.07 0.18,0.12 0.05,0.05 0.11,0.13 0.16,0.23 l 2.92,5.77 c 0.1,0.2 0.2,0.4 0.3,0.62 z"
       id="path34" />
  </g>
  <g
     id="g58"
     transform="matrix(1.4908536,0,0,1.4908536,-124.12215,-89.220003)">
    <path
       class="cls-2"
       d="m 88.3,205.97 h 2.56 l 12.45,26.84 c 0.98,2.07 2.07,4.82 2.07,4.82 h 0.12 c 0,0 1.1,-2.75 2.07,-4.82 l 12.44,-26.84 h 2.56 l 3.42,42.7 h -2.62 l -2.62,-32.58 c -0.18,-2.07 -0.18,-5.67 -0.18,-5.67 h -0.12 c 0,0 -1.22,3.6 -2.2,5.67 l -11.47,24.34 H 104.1 L 92.69,216.09 c -0.92,-2.01 -2.26,-5.8 -2.26,-5.8 h -0.12 c 0,0 0,3.72 -0.18,5.8 l -2.62,32.58 h -2.62 l 3.42,-42.7 z"
       id="path38" />
    <path
       class="cls-2"
       d="m 150.96,217.44 c 8.3,0 12.44,6.53 12.44,13.91 0,0.67 -0.12,1.65 -0.12,1.65 h -24.46 c 0,8.85 5.98,13.91 13.06,13.91 5.86,0 9.46,-3.84 9.46,-3.84 l 1.4,2.13 c 0,0 -4.27,4.21 -10.86,4.21 -8.6,0 -15.74,-6.22 -15.74,-15.92 0,-10.31 7.02,-16.04 14.82,-16.04 z m 9.76,13.18 c -0.31,-7.44 -4.76,-10.8 -9.82,-10.8 -5.61,0 -10.8,3.66 -11.9,10.8 z"
       id="path40" />
    <path
       class="cls-2"
       d="m 185.34,217.44 c 7.69,0 10.55,6.89 10.55,6.89 h 0.12 c 0,0 -0.24,-1.1 -0.24,-2.5 v -15.86 h 2.56 v 42.7 h -2.56 v -3.84 c 0,-1.4 0.24,-2.32 0.24,-2.32 h -0.12 c 0,0 -2.62,6.89 -11.04,6.89 -8.42,0 -13.18,-6.53 -13.18,-15.98 0,-9.45 5.67,-15.98 13.67,-15.98 z m -0.37,29.46 c 5.61,0 10.86,-3.96 10.86,-13.54 0,-6.77 -3.48,-13.42 -10.61,-13.42 -5.98,0 -10.86,4.94 -10.86,13.48 0,8.54 4.39,13.48 10.62,13.48 z"
       id="path42" />
    <path
       class="cls-2"
       d="m 210.18,205.97 h 3.05 v 4.45 h -3.05 z m 0.24,12.2 h 2.56 v 30.5 h -2.56 z"
       id="path44" />
    <path
       class="cls-2"
       d="m 241.25,230.06 h 2.01 v -1.04 c 0,-6.77 -3.48,-9.09 -8.36,-9.09 -5.31,0 -8.72,2.93 -8.72,2.93 l -1.46,-2.07 c 0,0 3.66,-3.36 10.31,-3.36 7.01,0 10.8,3.9 10.8,11.53 v 19.7 h -2.56 v -4.03 c 0,-1.65 0.24,-2.75 0.24,-2.75 h -0.12 c 0.06,0 -2.75,7.5 -10.68,7.5 -4.94,0 -10.37,-2.75 -10.37,-8.85 0,-10.37 13.48,-10.49 18.91,-10.49 z m -8.42,16.96 c 6.65,0 10.43,-6.89 10.43,-12.93 v -1.65 h -1.95 c -5.19,0 -16.29,0 -16.29,7.93 0,3.23 2.62,6.65 7.81,6.65 z"
       id="path46" />
    <path
       class="cls-2"
       d="m 278.16,209.69 c 0,0 -0.85,4.03 -1.65,6.77 l -9.03,32.21 h -3.29 l -11.22,-42.7 h 2.75 l 9.03,34.77 c 0.55,2.07 1.04,4.58 1.04,4.58 h 0.12 c 0.06,0 0.55,-2.44 1.16,-4.58 l 9.76,-34.77 h 2.93 l 9.76,34.77 c 0.61,2.13 1.1,4.58 1.16,4.58 h 0.12 c 0,0 0.49,-2.5 1.04,-4.58 l 9.33,-34.77 h 2.75 l -11.53,42.7 h -3.29 l -9.03,-32.21 c -0.79,-2.75 -1.65,-6.77 -1.65,-6.77 h -0.24 z"
       id="path48" />
    <path
       class="cls-2"
       d="m 323.6,217.44 c 8.72,0 15.8,6.89 15.8,15.8 0,8.91 -7.08,16.17 -15.8,16.17 -8.72,0 -15.8,-7.08 -15.8,-16.17 0,-9.09 7.08,-15.8 15.8,-15.8 z m 0,29.46 c 7.26,0 13.12,-5.92 13.12,-13.67 0,-7.75 -5.86,-13.3 -13.12,-13.3 -7.26,0 -13.12,5.73 -13.12,13.3 0,7.57 5.86,13.67 13.12,13.67 z"
       id="path50" />
    <path
       class="cls-2"
       d="m 349.52,218.17 h 2.56 v 5.79 c 0,1.4 -0.24,2.5 -0.24,2.5 h 0.12 c 1.53,-4.7 4.94,-8.54 9.76,-8.54 0.92,0 1.77,0.18 1.77,0.18 v 2.56 c 0,0 -0.73,-0.12 -1.4,-0.12 -4.76,0 -7.75,4.03 -9.09,8.54 -0.67,2.13 -0.92,4.39 -0.92,6.41 v 13.18 h -2.56 z"
       id="path52" />
    <path
       class="cls-2"
       d="m 371.6,205.97 h 2.56 v 24.22 h 5.43 l 9.88,-12.02 h 3.35 l -11.04,13.12 v 0.12 l 12.08,17.26 h -3.23 l -11.04,-16.11 h -5.43 v 16.11 h -2.56 z"
       id="path54" />
    <path
       class="cls-2"
       d="m 401.69,243.06 c 0,0 3.42,3.84 9.46,3.84 3.72,0 7.02,-1.95 7.02,-5.73 0,-7.75 -16.78,-5.55 -16.78,-15.5 0,-5.43 4.58,-8.24 9.76,-8.24 6.22,0 9.03,3.29 9.03,3.29 l -1.53,2.07 c 0,0 -2.5,-2.87 -7.69,-2.87 -3.48,0 -6.89,1.59 -6.89,5.55 0,7.93 16.78,5.55 16.78,15.68 0,4.88 -4.15,8.24 -9.76,8.24 -7.38,0 -11.04,-4.39 -11.04,-4.39 l 1.65,-1.95 z"
       id="path56" />
  </g>
  <polygon
     class="cls-2"
     points="202.53,182.71 202.53,182.7 202.52,182.71 "
     id="polygon60"
     transform="matrix(1.4908536,0,0,1.4908536,-124.12215,-89.220003)" />
  <polygon
     class="cls-2"
     points="270.71,182.71 270.7,182.7 270.7,182.71 "
     id="polygon62"
     transform="matrix(1.4908536,0,0,1.4908536,-124.12215,-89.220003)" />
  <polygon
     class="cls-1"
     points="259.44,90.27 259.45,90.27 259.44,90.2 "
     id="polygon64"
     transform="matrix(1.4908536,0,0,1.4908536,-124.12215,-89.220003)" />
  <g
     id="g80"
     transform="matrix(1.4908536,0,0,1.4908536,-124.12215,-89.220003)">
    <polygon
       class="cls-2"
       points="317.24,144.32 337.8,172.63 348.66,84.17 323.84,90.59 "
       id="polygon66" />
    <polygon
       class="cls-2"
       points="214.72,111 229.47,131.29 259.04,90.59 234.21,84.17 "
       id="polygon68" />
    <polygon
       class="cls-2"
       points="268.31,145.02 272.57,179.74 306.18,133.48 276.69,133.48 "
       id="polygon70" />
    <polygon
       class="cls-2"
       points="198.38,133.48 227.88,133.48 194.27,87.22 190,121.95 "
       id="polygon72" />
    <polygon
       class="cls-2"
       points="155.9,182.79 180.73,176.37 192.05,84.18 167.22,90.59 "
       id="polygon74" />
    <polygon
       class="cls-2"
       points="312.52,182.79 337.34,176.37 307.77,135.67 293.03,155.97 "
       id="polygon76" />
    <polygon
       class="cls-2"
       points="245.53,176.37 270.36,182.79 259.5,94.34 238.93,122.64 "
       id="polygon78" />
  </g>
</svg>
