<svg width="180" height="180" viewBox="-1 -1 27 27" xmlns="http://www.w3.org/2000/svg" xmlns:xlink="http://www.w3.org/1999/xlink" shape-rendering="crispEdges" id="qr code"><rect id="qr background" fill-opacity="1" fill="rgb(255, 255, 255)" x="-1" y="-1" width="27" height="27"></rect><path fill-opacity="1" fill="rgb(0, 0, 0)" id="qr dark pixels" fill-rule="evenodd" d="M 8 0 L 9 0 L 9 2 L 10 2 L 10 3 L 9 3 L 9 4 L 8 4 z M 11 0 L 12 0 L 12 1 L 11 1 z M 14 0 L 17 0 L 17 1 L 15 1 L 15 2 L 16 2 L 16 3 L 17 3 L 17 7 L 16 7 L 16 5 L 15 5 L 15 7 L 16 7 L 16 8 L 14 8 L 14 6 L 13 6 L 13 3 L 14 3 L 14 2 L 12 2 L 12 1 L 14 1 z M 11 3 L 12 3 L 12 5 L 11 5 z M 9 4 L 10 4 L 10 5 L 9 5 z M 8 5 L 9 5 L 9 7 L 8 7 z M 10 5 L 11 5 L 11 8 L 10 8 L 10 10 L 9 10 L 9 7 L 10 7 z M 12 6 L 13 6 L 13 9 L 12 9 L 12 11 L 13 11 L 13 13 L 12 13 L 12 14 L 14 14 L 14 13 L 15 13 L 15 12 L 14 12 L 14 11 L 13 11 L 13 9 L 14 9 L 14 10 L 15 10 L 15 9 L 17 9 L 17 10 L 16 10 L 16 13 L 17 13 L 17 12 L 18 12 L 18 11 L 19 11 L 19 12 L 20 12 L 20 13 L 18 13 L 18 16 L 19 16 L 19 14 L 20 14 L 20 13 L 21 13 L 21 14 L 23 14 L 23 15 L 24 15 L 24 16 L 23 16 L 23 17 L 21 17 L 21 19 L 24 19 L 24 20 L 23 20 L 23 22 L 22 22 L 22 21 L 20 21 L 20 22 L 19 22 L 19 23 L 18 23 L 18 21 L 17 21 L 17 23 L 16 23 L 16 22 L 14 22 L 14 21 L 16 21 L 16 20 L 15 20 L 15 19 L 16 19 L 16 17 L 15 17 L 15 16 L 17 16 L 17 15 L 15 15 L 15 16 L 14 16 L 14 15 L 13 15 L 13 17 L 12 17 L 12 15 L 11 15 L 11 8 L 12 8 zM 21 15 L 22 15 L 22 16 L 21 16 z M 17 17 L 20 17 L 20 20 L 17 20 z M 0 8 L 2 8 L 2 9 L 0 9 z M 4 8 L 7 8 L 7 9 L 4 9 z M 19 8 L 20 8 L 20 9 L 19 9 z M 21 8 L 25 8 L 25 9 L 24 9 L 24 10 L 23 10 L 23 9 L 22 9 L 22 10 L 23 10 L 23 11 L 24 11 L 24 12 L 25 12 L 25 13 L 24 13 L 24 14 L 23 14 L 23 13 L 21 13 L 21 12 L 22 12 L 22 11 L 20 11 L 20 9 L 21 9 z M 2 9 L 4 9 L 4 10 L 3 10 L 3 11 L 2 11 z M 7 9 L 8 9 L 8 10 L 9 10 L 9 11 L 10 11 L 10 12 L 9 12 L 9 13 L 8 13 L 8 11 L 6 11 L 6 10 L 7 10 z M 0 10 L 1 10 L 1 12 L 0 12 z M 17 10 L 18 10 L 18 11 L 17 11 z M 3 11 L 5 11 L 5 12 L 7 12 L 7 13 L 5 13 L 5 14 L 4 14 L 4 15 L 6 15 L 6 16 L 4 16 L 4 17 L 0 17 L 0 16 L 2 16 L 2 15 L 3 15 L 3 14 L 0 14 L 0 13 L 1 13 L 1 12 L 3 12 L 3 13 L 4 13 L 4 12 L 3 12 z M 7 13 L 8 13 L 8 14 L 7 14 z M 9 13 L 10 13 L 10 14 L 9 14 z M 6 14 L 7 14 L 7 15 L 6 15 z M 7 15 L 10 15 L 10 16 L 11 16 L 11 17 L 12 17 L 12 19 L 11 19 L 11 20 L 12 20 L 12 19 L 13 19 L 13 22 L 14 22 L 14 23 L 9 23 L 9 21 L 10 21 L 10 20 L 9 20 L 9 21 L 8 21 L 8 19 L 9 19 L 9 18 L 8 18 L 8 17 L 9 17 L 9 16 L 8 16 L 8 17 L 6 17 L 6 16 L 7 16 z M 13 17 L 14 17 L 14 19 L 13 19 z M 18 18 L 19 18 L 19 19 L 18 19 z M 24 20 L 25 20 L 25 21 L 24 21 z M 21 22 L 22 22 L 22 23 L 23 23 L 23 22 L 24 22 L 24 24 L 25 24 L 25 25 L 22 25 L 22 24 L 19 24 L 19 23 L 21 23 z M 8 23 L 9 23 L 9 25 L 8 25 z M 14 23 L 15 23 L 15 24 L 14 24 z M 10 24 L 11 24 L 11 25 L 10 25 z M 18 24 L 19 24 L 19 25 L 18 25 z"></path><path id="qr squares" d="M0,0h7h0v0v7v0h0h-7h0v0v-7v0h0zM1,1h5h0v0v5v0h0h-5h0v0v-5v0h0zM2,2h3h0v0v3v0h0h-3h0v0v-3v0h0z M18,0h7h0v0v7v0h0h-7h0v0v-7v0h0zM19,1h5h0v0v5v0h0h-5h0v0v-5v0h0zM20,2h3h0v0v3v0h0h-3h0v0v-3v0h0z M0,18h7h0v0v7v0h0h-7h0v0v-7v0h0zM1,19h5h0v0v5v0h0h-5h0v0v-5v0h0zM2,20h3h0v0v3v0h0h-3h0v0v-3v0h0z" fill-rule="evenodd" fill-opacity="1" fill="rgb(0, 0, 0)"></path></svg>