<svg width="180" height="180" viewBox="-1 -1 31 31" xmlns="http://www.w3.org/2000/svg" xmlns:xlink="http://www.w3.org/1999/xlink" shape-rendering="crispEdges" id="qr code"><rect id="qr background" fill-opacity="1" fill="rgb(255, 255, 255)" x="-1" y="-1" width="31" height="31"></rect><path fill-opacity="1" fill="rgb(0, 0, 0)" id="qr dark pixels" fill-rule="evenodd" d="M 10 0 L 11 0 L 11 2 L 9 2 L 9 3 L 8 3 L 8 1 L 10 1 z M 14 0 L 16 0 L 16 1 L 17 1 L 17 2 L 18 2 L 18 3 L 16 3 L 16 2 L 15 2 L 15 4 L 14 4 z M 17 0 L 21 0 L 21 1 L 19 1 L 19 2 L 18 2 L 18 1 L 17 1 z M 20 2 L 21 2 L 21 3 L 20 3 z M 9 3 L 10 3 L 10 4 L 11 4 L 11 7 L 12 7 L 12 8 L 14 8 L 14 9 L 13 9 L 13 11 L 14 11 L 14 12 L 12 12 L 12 16 L 11 16 L 11 15 L 10 15 L 10 14 L 11 14 L 11 13 L 10 13 L 10 12 L 9 12 L 9 11 L 11 11 L 11 8 L 10 8 L 10 5 L 9 5 L 9 8 L 8 8 L 8 4 L 9 4 z M 12 3 L 13 3 L 13 4 L 14 4 L 14 5 L 13 5 L 13 7 L 12 7 z M 18 3 L 19 3 L 19 5 L 18 5 z M 15 4 L 17 4 L 17 5 L 16 5 L 16 6 L 15 6 L 15 7 L 14 7 L 14 5 L 15 5 z M 17 5 L 18 5 L 18 6 L 17 6 z M 19 5 L 21 5 L 21 8 L 20 8 L 20 9 L 19 9 L 19 7 L 20 7 L 20 6 L 19 6 z M 16 6 L 17 6 L 17 7 L 16 7 z M 18 6 L 19 6 L 19 7 L 18 7 z M 15 7 L 16 7 L 16 8 L 15 8 z M 17 7 L 18 7 L 18 8 L 17 8 z M 0 8 L 2 8 L 2 10 L 1 10 L 1 9 L 0 9 z M 3 8 L 4 8 L 4 10 L 3 10 z M 6 8 L 8 8 L 8 10 L 9 10 L 9 11 L 5 11 L 5 12 L 7 12 L 7 13 L 6 13 L 6 14 L 5 14 L 5 13 L 4 13 L 4 10 L 5 10 L 5 9 L 6 9 L 6 10 L 7 10 L 7 9 L 6 9 z M 22 8 L 25 8 L 25 9 L 23 9 L 23 10 L 22 10 L 22 11 L 19 11 L 19 10 L 20 10 L 20 9 L 22 9 z M 26 8 L 28 8 L 28 9 L 26 9 z M 9 9 L 10 9 L 10 10 L 9 10 z M 16 9 L 18 9 L 18 10 L 17 10 L 17 12 L 18 12 L 18 13 L 19 13 L 19 12 L 23 12 L 23 13 L 22 13 L 22 17 L 24 17 L 24 18 L 25 18 L 25 19 L 24 19 L 24 20 L 25 20 L 25 23 L 27 23 L 27 24 L 25 24 L 25 25 L 27 25 L 27 24 L 28 24 L 28 23 L 29 23 L 29 25 L 28 25 L 28 26 L 27 26 L 27 27 L 24 27 L 24 26 L 22 26 L 22 25 L 20 25 L 20 22 L 19 22 L 19 19 L 20 19 L 20 20 L 21 20 L 21 19 L 22 19 L 22 20 L 23 20 L 23 19 L 22 19 L 22 18 L 21 18 L 21 17 L 19 17 L 19 15 L 20 15 L 20 14 L 21 14 L 21 13 L 20 13 L 20 14 L 18 14 L 18 17 L 17 17 L 17 16 L 16 16 L 16 15 L 17 15 L 17 13 L 16 13 L 16 12 L 15 12 L 15 11 L 16 11 zM 21 21 L 24 21 L 24 24 L 21 24 z M 25 9 L 26 9 L 26 10 L 28 10 L 28 12 L 29 12 L 29 13 L 27 13 L 27 12 L 26 12 L 26 11 L 25 11 L 25 12 L 24 12 L 24 11 L 23 11 L 23 10 L 25 10 z M 28 9 L 29 9 L 29 10 L 28 10 z M 2 10 L 3 10 L 3 11 L 2 11 z M 1 11 L 2 11 L 2 13 L 1 13 z M 18 11 L 19 11 L 19 12 L 18 12 z M 8 12 L 9 12 L 9 15 L 8 15 L 8 16 L 7 16 L 7 15 L 6 15 L 6 14 L 7 14 L 7 13 L 8 13 z M 14 12 L 15 12 L 15 13 L 14 13 z M 25 12 L 26 12 L 26 13 L 25 13 z M 3 13 L 4 13 L 4 14 L 3 14 z M 13 13 L 14 13 L 14 14 L 15 14 L 15 15 L 13 15 z M 0 14 L 2 14 L 2 15 L 0 15 z M 4 14 L 5 14 L 5 16 L 4 16 z M 23 14 L 24 14 L 24 15 L 23 15 z M 25 14 L 29 14 L 29 15 L 28 15 L 28 17 L 27 17 L 27 15 L 26 15 L 26 16 L 24 16 L 24 15 L 25 15 z M 9 15 L 10 15 L 10 16 L 9 16 z M 0 16 L 2 16 L 2 18 L 1 18 L 1 17 L 0 17 z M 5 16 L 7 16 L 7 17 L 6 17 L 6 18 L 7 18 L 7 17 L 8 17 L 8 19 L 4 19 L 4 20 L 3 20 L 3 19 L 2 19 L 2 18 L 4 18 L 4 17 L 5 17 z M 8 16 L 9 16 L 9 17 L 8 17 z M 12 16 L 14 16 L 14 17 L 15 17 L 15 20 L 14 20 L 14 18 L 13 18 L 13 20 L 12 20 L 12 19 L 11 19 L 11 18 L 12 18 z M 16 17 L 17 17 L 17 18 L 16 18 z M 18 17 L 19 17 L 19 18 L 18 18 z M 25 17 L 26 17 L 26 18 L 25 18 z M 28 17 L 29 17 L 29 20 L 27 20 L 27 18 L 28 18 z M 0 18 L 1 18 L 1 19 L 0 19 z M 9 19 L 11 19 L 11 20 L 9 20 z M 17 19 L 18 19 L 18 20 L 17 20 z M 0 20 L 1 20 L 1 21 L 0 21 z M 4 20 L 5 20 L 5 21 L 4 21 z M 6 20 L 8 20 L 8 21 L 6 21 z M 15 20 L 17 20 L 17 21 L 18 21 L 18 22 L 16 22 L 16 21 L 15 21 z M 26 20 L 27 20 L 27 21 L 29 21 L 29 22 L 28 22 L 28 23 L 27 23 L 27 22 L 26 22 z M 8 21 L 9 21 L 9 22 L 10 22 L 10 23 L 8 23 z M 10 21 L 12 21 L 12 22 L 10 22 z M 14 21 L 15 21 L 15 22 L 14 22 z M 22 22 L 23 22 L 23 23 L 22 23 z M 14 23 L 17 23 L 17 24 L 14 24 z M 18 23 L 19 23 L 19 24 L 18 24 z M 9 24 L 11 24 L 11 25 L 12 25 L 12 24 L 13 24 L 13 27 L 18 27 L 18 28 L 19 28 L 19 29 L 17 29 L 17 28 L 16 28 L 16 29 L 13 29 L 13 28 L 12 28 L 12 26 L 10 26 L 10 27 L 9 27 L 9 26 L 8 26 L 8 25 L 9 25 z M 17 24 L 18 24 L 18 25 L 20 25 L 20 27 L 21 27 L 21 28 L 22 28 L 22 29 L 20 29 L 20 28 L 19 28 L 19 27 L 18 27 L 18 26 L 17 26 z M 28 26 L 29 26 L 29 27 L 28 27 z M 8 27 L 9 27 L 9 29 L 8 29 z M 10 27 L 11 27 L 11 28 L 12 28 L 12 29 L 10 29 z M 23 27 L 24 27 L 24 28 L 26 28 L 26 29 L 23 29 z M 27 27 L 28 27 L 28 29 L 27 29 z"></path><path id="qr squares" d="M0,0h7h0v0v7v0h0h-7h0v0v-7v0h0zM1,1h5h0v0v5v0h0h-5h0v0v-5v0h0zM2,2h3h0v0v3v0h0h-3h0v0v-3v0h0z M22,0h7h0v0v7v0h0h-7h0v0v-7v0h0zM23,1h5h0v0v5v0h0h-5h0v0v-5v0h0zM24,2h3h0v0v3v0h0h-3h0v0v-3v0h0z M0,22h7h0v0v7v0h0h-7h0v0v-7v0h0zM1,23h5h0v0v5v0h0h-5h0v0v-5v0h0zM2,24h3h0v0v3v0h0h-3h0v0v-3v0h0z" fill-rule="evenodd" fill-opacity="1" fill="rgb(0, 0, 0)"></path></svg>